<?xml version="1.0" encoding="utf-8"?>
<!-- Generator: Adobe Illustrator 23.0.2, SVG Export Plug-In . SVG Version: 6.00 Build 0)  -->
<svg version="1.1" id="Capa_1" xmlns="http://www.w3.org/2000/svg" xmlns:xlink="http://www.w3.org/1999/xlink" x="0px" y="0px"
	 viewBox="0 0 260 260" style="enable-background:new 0 0 260 260;" xml:space="preserve">
<style type="text/css">
	.st0{fill:#237ABA;}
</style>
<title>3</title>
<path class="st0" d="M90,10H22c-6.6,0-12,5.4-12,12v68h20V36c0-3.3,2.7-6,6-6h54V10z"/>
<path class="st0" d="M250,90V22c0-6.6-5.4-12-12-12h-68v20h54c3.3,0,6,2.7,6,6v54H250z"/>
<path class="st0" d="M170,250h68c6.6,0,12-5.4,12-12v-68h-20v54c0,3.3-2.7,6-6,6h-54V250z"/>
<path class="st0" d="M10,170v68c0,6.6,5.4,12,12,12h68v-20H36c-3.3,0-6-2.7-6-6v-54H10z"/>
<path class="st0" d="M200,130c0-38.7-31.3-70-70-70s-70,31.3-70,70s31.3,70,70,70l0,0C168.7,200,200,168.7,200,130z M155,100
	c5.5,0,10,4.5,10,10s-4.5,10-10,10s-10-4.5-10-10S149.5,100,155,100z M105,100c5.5,0,10,4.5,10,10s-4.5,10-10,10s-10-4.5-10-10
	S99.5,100,105,100z M170,146c-7.1,22.1-30.7,34.3-52.8,27.2c-12.9-4.1-23.1-14.3-27.2-27.2c-0.6-2.1,0.6-4.3,2.8-4.9
	c0.1,0,0.2,0,0.2-0.1h73c2.2-0.1,4.1,1.7,4.1,3.9C170.1,145.3,170.1,145.6,170,146z"/>
</svg>
